<?xml version="1.0" encoding="utf-8"?>
<!-- Generator: Adobe Illustrator 14.0.0, SVG Export Plug-In . SVG Version: 6.00 Build 43363)  -->
<!DOCTYPE svg PUBLIC "-//W3C//DTD SVG 1.1//EN" "http://www.w3.org/Graphics/SVG/1.1/DTD/svg11.dtd">
<svg version="1.1" id="Layer_1" xmlns="http://www.w3.org/2000/svg" xmlns:xlink="http://www.w3.org/1999/xlink" x="0px" y="0px"
	 width="672.98px" height="152.963px" viewBox="0 0 672.98 152.963" enable-background="new 0 0 672.98 152.963"
	 xml:space="preserve">
<g>
	<defs>
		<rect id="SVGID_1_" width="672.98" height="152.963"/>
	</defs>
	<clipPath id="SVGID_2_">
		<use xlink:href="#SVGID_1_"  overflow="visible"/>
	</clipPath>
	<path clip-path="url(#SVGID_2_)" fill="#FFFFFF" d="M47.574,105.404V9.955c3.52-0.824,7.04-1.253,10.575-1.253l21.131,4.82
		l0.777-11.034H0l0.935,11.034l20.99-4.82c3.519,0,7.038,0.429,10.573,1.253v95.449H47.574z"/>
	<polygon clip-path="url(#SVGID_2_)" fill="#FFFFFF" points="110.684,54.423 157.799,54.423 157.799,105.404 172.874,105.404 
		172.874,2.488 157.799,2.488 157.799,48.509 110.684,48.509 110.684,2.488 95.607,2.488 95.607,105.404 110.684,105.404 	"/>
	<path clip-path="url(#SVGID_2_)" fill="#FFFFFF" d="M236.92,0h-2.331L188.41,105.405h8.402l11.509-27.98h46.163l11.668,27.98
		h16.946L236.92,0z M210.651,71.511l20.831-50.363l20.513,50.363H210.651z"/>
	<rect x="298.634" y="2.488" clip-path="url(#SVGID_2_)" fill="#FFFFFF" width="14.299" height="102.917"/>
	<path clip-path="url(#SVGID_2_)" fill="#FFFFFF" d="M386.633,94.213c10.97,8.703,24.508,13.063,40.568,13.063
		c12.538,0,23.271-1.761,32.181-5.296v-8.544c-6.42,5.596-16.17,8.4-29.233,8.4c-13.046,0-23.573-4.121-31.546-12.364
		c-7.991-8.243-11.97-19.975-11.97-35.209c0-12.445,2.918-22.796,8.782-31.103c5.851-8.291,14.221-13.681,25.095-16.154
		c7.88,0,15.71,1.394,23.479,4.185c2.694,1.045,6.484,2.6,11.352,4.676l1.553-10.574c-9.322-3.106-18.295-4.66-26.887-4.66
		c-14.821,0-28.202,4.344-40.107,13.047c-5.913,4.248-10.685,10.113-14.315,17.564c-3.63,7.467-5.437,15.964-5.437,25.508
		C370.146,73.018,375.646,85.509,386.633,94.213"/>
	<rect x="478.039" y="2.488" clip-path="url(#SVGID_2_)" fill="#FFFFFF" width="14.301" height="102.917"/>
	<path clip-path="url(#SVGID_2_)" fill="#FFFFFF" d="M540.373,9.955v95.449h15.075V9.955c3.536-0.824,7.056-1.253,10.573-1.253
		l21.148,4.82l0.777-11.034h-80.072l0.935,11.034l20.99-4.82C533.318,8.702,536.854,9.131,540.373,9.955"/>
	<polygon clip-path="url(#SVGID_2_)" fill="#FFFFFF" points="665.214,2.488 638.312,61.571 609.554,2.488 592.609,2.488 
		627.738,67.168 627.738,105.404 642.829,105.404 642.829,66.391 672.98,2.488 	"/>
	<rect x="32.562" y="141.073" clip-path="url(#SVGID_2_)" fill="#FFFFFF" width="125.807" height="1.585"/>
	<rect x="516.165" y="141.073" clip-path="url(#SVGID_2_)" fill="#FFFFFF" width="125.808" height="1.585"/>
	<path clip-path="url(#SVGID_2_)" fill="#FFFFFF" d="M180.214,141.55c0.681-0.127,1.315-0.286,1.902-0.477
		c1.11-0.365,2.045-0.871,2.806-1.49c1.157-0.967,1.729-2.267,1.729-3.915c0-1.649-0.73-2.997-2.173-3.995
		c-1.458-1.015-3.313-1.521-5.58-1.521h-7.292v10.922v1.585v9.829h3.297v-9.829v-0.84h2.601l0.586,0.84l7.245,10.305l3.915-0.476
		l-8.117-9.829L180.214,141.55z M174.903,131.974c1.49-0.381,2.997-0.57,4.534-0.57c1.68,0.443,2.79,1.379,3.298,2.79
		c0.269,0.682,0.411,1.284,0.411,1.823c0,3.201-2.029,4.787-6.071,4.787h-2.172V131.974z"/>
	<path clip-path="url(#SVGID_2_)" fill="#FFFFFF" d="M196.4,142.658v-1.235h7.499v-0.35v-0.937H196.4v-8.194
		c1.332-0.396,2.552-0.587,3.646-0.587l6.277,1.046l0.349-2.25h-13.538v10.922v1.585v9.829h13.395l0.334-2.268l-10.463,1.047
		V142.658z"/>
	<path clip-path="url(#SVGID_2_)" fill="#FFFFFF" d="M223.999,142.658c-0.57-0.603-1.236-1.126-1.981-1.585
		c-0.048-0.031-0.111-0.079-0.175-0.111c-1.094-0.665-2.203-1.315-3.313-1.95c-1.11-0.649-2.061-1.394-2.837-2.235
		c-0.777-0.84-1.157-1.759-1.157-2.742c0-1.379,0.57-2.346,1.743-2.916c2.156,0,4.756,0.666,7.8,1.966l0.333-2.299
		c-2.331-0.698-4.265-1.047-5.803-1.047c-2.346,0-4.105,0.571-5.279,1.729c-1.189,1.142-1.775,2.378-1.775,3.71
		c0,1.331,0.381,2.457,1.11,3.393c0.745,0.935,1.648,1.695,2.71,2.314c0.112,0.062,0.238,0.127,0.35,0.189
		c0.935,0.539,1.87,1.062,2.821,1.57c0.016,0,0.016,0.015,0.032,0.015c1.046,0.587,1.918,1.253,2.663,2.014
		c0.745,0.776,1.11,1.632,1.11,2.585c0,1.395-0.444,2.488-1.348,3.281c-0.903,0.776-2.156,1.173-3.757,1.173
		c-1.617,0-3.567-0.571-5.85-1.712v1.585c2.267,0.872,4.566,1.315,6.88,1.315c2.315,0,4.154-0.586,5.517-1.76
		c1.363-1.173,2.045-2.679,2.045-4.518c0-1.174-0.396-2.252-1.172-3.219C224.459,143.149,224.237,142.896,223.999,142.658"/>
	<path clip-path="url(#SVGID_2_)" fill="#FFFFFF" d="M245.543,130.151h-17.375l0.19,2.393l4.566-1.045
		c0.761,0,1.522,0.094,2.283,0.27v9.305v1.585v9.829h3.281v-9.829v-1.585v-9.305c0.761-0.176,1.522-0.27,2.299-0.27l4.581,1.045
		L245.543,130.151z"/>
	<path clip-path="url(#SVGID_2_)" fill="#FFFFFF" d="M259.779,141.073l-5.025-11.463h-0.508l-5.025,11.463l-0.682,1.585
		l-4.311,9.828h1.823l2.488-6.071h10.035l2.521,6.071h3.678l-4.312-9.828L259.779,141.073z M249.047,145.132l1.03-2.474l0.651-1.585
		l2.853-6.88l2.806,6.88l0.634,1.585l1.014,2.474H249.047z"/>
	<path clip-path="url(#SVGID_2_)" fill="#FFFFFF" d="M283.273,141.073v1.585v1.998c0,4.502-2.109,6.753-6.31,6.753
		c-1.109,0-2.06-0.174-2.853-0.539c-0.793-0.364-1.379-0.761-1.76-1.221c-0.365-0.443-0.665-1.047-0.871-1.791
		c-0.223-0.729-0.333-1.316-0.365-1.712c-0.016-0.412-0.032-0.936-0.032-1.585v-1.903v-1.585v-10.922h-3.44v10.922v1.585v1.634
		c0,5.738,2.79,8.607,8.37,8.607c2.236,0,4.09-0.428,5.565-1.283c0.587-0.365,1.109-0.841,1.537-1.443
		c0.445-0.587,0.761-1.125,0.968-1.602c0.443-1.062,0.681-2.631,0.681-4.725v-1.188v-1.585v-10.922h-1.49V141.073z"/>
	<path clip-path="url(#SVGID_2_)" fill="#FFFFFF" d="M298.935,141.55c0.682-0.127,1.332-0.286,1.919-0.477
		c1.109-0.365,2.029-0.871,2.79-1.49c1.157-0.967,1.728-2.267,1.728-3.915c0-1.649-0.73-2.997-2.173-3.995
		c-1.458-1.015-3.312-1.521-5.579-1.521h-7.292v10.922v1.585v9.829h3.297v-9.829v-0.84h2.6l0.586,0.84l7.245,10.305l3.916-0.476
		l-8.118-9.829L298.935,141.55z M293.625,131.974c1.49-0.381,2.996-0.57,4.534-0.57c1.68,0.443,2.789,1.379,3.297,2.79
		c0.27,0.682,0.412,1.284,0.412,1.823c0,3.201-2.029,4.787-6.072,4.787h-2.171V131.974z"/>
	<path clip-path="url(#SVGID_2_)" fill="#FFFFFF" d="M324.712,141.073l-5.025-11.463h-0.508l-5.025,11.463l-0.681,1.585
		l-4.312,9.828h1.822l2.49-6.071h10.018l2.537,6.071h3.678l-4.312-9.828L324.712,141.073z M313.98,145.132l1.015-2.474l0.665-1.585
		l2.838-6.88l2.806,6.88l0.634,1.585l1.015,2.474H313.98z"/>
	<polygon clip-path="url(#SVGID_2_)" fill="#FFFFFF" points="348.57,141.073 348.57,142.658 348.57,146.385 348.443,146.385 
		345.496,142.658 344.243,141.073 335.587,130.151 333.083,130.151 333.083,141.073 333.083,142.658 333.083,152.487 
		334.572,152.487 334.572,142.658 334.572,141.073 334.572,134.367 334.699,134.367 340.057,141.073 341.325,142.658 
		349.49,152.853 350.061,152.853 350.061,142.658 350.061,141.073 350.061,130.151 348.57,130.151 	"/>
	<path clip-path="url(#SVGID_2_)" fill="#FFFFFF" d="M353.628,132.544l4.565-1.045c0.76,0,1.521,0.094,2.299,0.27v9.305v1.585v9.829
		h3.265v-9.829v-1.585v-9.305c0.762-0.176,1.538-0.27,2.3-0.27l4.58,1.045l0.176-2.393h-17.375L353.628,132.544z"/>
	<path clip-path="url(#SVGID_2_)" fill="#FFFFFF" d="M399.029,142.657c0.143-0.41,0.285-0.839,0.43-1.267
		c1.156-0.048,1.933-0.11,2.329-0.175l0.048-0.143l0.522-1.537c-1.553,0.428-3.456,0.666-5.722,0.729v0.809v0.238
		c0.236,0.031,0.649,0.047,1.236,0.047c-0.144,0.46-0.286,0.889-0.429,1.299c-0.681,1.982-1.347,3.506-1.997,4.567
		c-1.395-1.396-2.584-2.917-3.552-4.567c-0.302-0.521-0.587-1.045-0.84-1.584c-0.016-0.047-0.047-0.079-0.063-0.127
		c-1.108-2.314-1.649-4.375-1.649-6.183c0-1.791,0.541-3.044,1.618-3.741c2.108,0,3.884,0.539,5.327,1.617l0.349-2.124
		c-0.508-0.222-1.237-0.429-2.205-0.603c-0.966-0.175-1.87-0.27-2.727-0.27s-1.696,0.238-2.505,0.713
		c-0.809,0.461-1.379,1.047-1.712,1.744c-0.587,1.236-0.887,2.347-0.887,3.313c0,1.602,0.427,3.345,1.283,5.263
		c-0.633,0.111-1.22,0.238-1.775,0.396c-1.269,0.381-2.314,0.904-3.107,1.584c-0.111,0.081-0.206,0.176-0.301,0.271
		c-1.125,1.109-1.696,2.409-1.696,3.883c0,1.126,0.223,2.109,0.682,2.965c0.477,0.84,1.079,1.475,1.808,1.902
		c1.443,0.824,2.947,1.252,4.533,1.252c2.712,0,5.058-1.062,7.008-3.17c2.521,1.823,5.12,2.727,7.768,2.727l1.458-1.047
		c-2.711,0-5.343-1.109-7.912-3.344C397.333,146.638,398.237,144.831,399.029,142.657 M388.995,151.346
		c-1.459,0-2.663-0.364-3.615-1.109c-0.966-0.729-1.441-1.871-1.441-3.425c0-1.077,0.349-2.076,1.062-3.012
		c0.332-0.428,0.744-0.809,1.252-1.143c0.585-0.363,1.283-0.68,2.108-0.902c0.158,0.301,0.316,0.603,0.491,0.902
		c1.363,2.49,3.121,4.614,5.279,6.391C392.673,150.569,390.961,151.346,388.995,151.346"/>
	<path clip-path="url(#SVGID_2_)" fill="#FFFFFF" d="M429.229,142.658c-0.586-0.603-1.252-1.126-1.981-1.585
		c-0.046-0.031-0.109-0.079-0.173-0.111c-1.11-0.665-2.221-1.315-3.33-1.95c-1.11-0.649-2.061-1.394-2.838-2.235
		c-0.777-0.84-1.157-1.759-1.157-2.742c0-1.379,0.587-2.346,1.744-2.916c2.172,0,4.771,0.666,7.798,1.966l0.35-2.299
		c-2.346-0.698-4.279-1.047-5.817-1.047c-2.33,0-4.091,0.571-5.28,1.729c-1.171,1.142-1.773,2.378-1.773,3.71
		c0,1.331,0.379,2.457,1.126,3.393c0.744,0.935,1.631,1.695,2.693,2.314c0.111,0.062,0.238,0.127,0.35,0.189
		c0.951,0.539,1.87,1.062,2.821,1.57c0.017,0,0.017,0.015,0.031,0.015c1.047,0.587,1.935,1.253,2.664,2.014
		c0.746,0.776,1.125,1.632,1.125,2.585c0,1.395-0.46,2.488-1.347,3.281c-0.904,0.776-2.156,1.173-3.772,1.173
		c-1.602,0-3.552-0.571-5.851-1.712v1.585c2.268,0.872,4.565,1.315,6.88,1.315s4.153-0.586,5.518-1.76
		c1.363-1.173,2.045-2.679,2.045-4.518c0-1.174-0.396-2.252-1.174-3.219C429.673,143.149,429.452,142.896,429.229,142.658"/>
	<path clip-path="url(#SVGID_2_)" fill="#FFFFFF" d="M451.201,141.073v1.585v1.998c0,4.502-2.108,6.753-6.31,6.753
		c-1.108,0-2.061-0.174-2.854-0.539c-0.809-0.364-1.38-0.761-1.759-1.221c-0.365-0.443-0.667-1.047-0.873-1.791
		c-0.222-0.729-0.333-1.316-0.364-1.712c-0.015-0.412-0.032-0.936-0.032-1.585v-1.903v-1.585v-10.922h-3.439v10.922v1.585v1.634
		c0,5.738,2.789,8.607,8.37,8.607c2.235,0,4.091-0.428,5.564-1.283c0.587-0.365,1.109-0.841,1.537-1.443
		c0.444-0.587,0.763-1.125,0.968-1.602c0.444-1.062,0.665-2.631,0.665-4.725v-1.188v-1.585v-10.922h-1.474V141.073z"/>
	<path clip-path="url(#SVGID_2_)" fill="#FFFFFF" d="M470.161,142.658c-0.571-0.603-1.237-1.126-1.981-1.585
		c-0.048-0.031-0.111-0.079-0.175-0.111c-1.11-0.665-2.203-1.315-3.329-1.95c-1.109-0.649-2.061-1.394-2.837-2.235
		c-0.777-0.84-1.158-1.759-1.158-2.742c0-1.379,0.587-2.346,1.76-2.916c2.157,0,4.756,0.666,7.8,1.966l0.333-2.299
		c-2.346-0.698-4.281-1.047-5.803-1.047c-2.346,0-4.105,0.571-5.296,1.729c-1.172,1.142-1.757,2.378-1.757,3.71
		c0,1.331,0.363,2.457,1.108,3.393c0.746,0.935,1.633,1.695,2.695,2.314c0.111,0.062,0.238,0.127,0.348,0.189
		c0.952,0.539,1.888,1.062,2.822,1.57c0.016,0,0.016,0.015,0.032,0.015c1.046,0.587,1.935,1.253,2.679,2.014
		c0.729,0.776,1.11,1.632,1.11,2.585c0,1.395-0.46,2.488-1.347,3.281c-0.904,0.776-2.157,1.173-3.775,1.173
		c-1.601,0-3.549-0.571-5.849-1.712v1.585c2.266,0.872,4.565,1.315,6.88,1.315s4.154-0.586,5.518-1.76
		c1.362-1.173,2.045-2.679,2.045-4.518c0-1.174-0.381-2.252-1.157-3.219C470.621,143.149,470.399,142.896,470.161,142.658"/>
	<polygon clip-path="url(#SVGID_2_)" fill="#FFFFFF" points="490.516,140.138 480.291,140.138 480.291,130.151 477.01,130.151 
		477.01,141.073 477.01,142.658 477.01,152.487 480.291,152.487 480.291,142.658 480.291,141.423 490.516,141.423 490.516,142.658 
		490.516,152.487 493.782,152.487 493.782,142.658 493.782,141.073 493.782,130.151 490.516,130.151 	"/>
	<polygon clip-path="url(#SVGID_2_)" fill="#FFFFFF" points="499.869,141.073 499.869,142.658 499.869,152.487 502.96,152.487 
		502.96,142.658 502.96,141.073 502.96,130.151 499.869,130.151 	"/>
</g>
</svg>
