<svg xmlns="http://www.w3.org/2000/svg" xmlns:xlink="http://www.w3.org/1999/xlink" version="1.1" x="0px" y="0px" width="92px" height="163.5px" viewBox="0 0 92 163.5" enable-background="new 0 0 92 163.5" xml:space="preserve"><style>.style0{clip-path:	url(#SVGID_2_);fill:	#FFFFFF;}</style><g><g><defs><rect width="92" height="163.5"/></defs><clipPath><use xlink:href="#SVGID_1_" overflow="visible"/></clipPath><path d="M91.811 9.32C91.949 8.9 92 8.5 92 8.13c0-0.51-0.08-1-0.301-1.47 c-0.551-1.2-1.979-2.26-5.069-3.18c-2.22-0.66-5.3-1.26-9.55-1.81C68.76 0.6 57.7 0 46 0C34.279 0 23.2 0.6 14.9 1.7 c-4.24 0.55-7.33 1.15-9.55 1.82C2.279 4.4 0.8 5.5 0.3 6.66C0.08 7.1 0 7.6 0 8.13c0 0.4 0.1 0.8 0.2 1.2 C0.06 12.8 0 16.2 0 19.75c0 45.5 10.6 83.9 26.2 101.667h-0.006c0 0 0 0 0 0 c1.066 1.2 2.2 2.3 3.3 3.343c4.386 4.9 11.3 14.1 9 21.872c-1.629 3.482-8.34 5.135-11.945 5.8 c-0.793 0.11-1.557 0.227-2.292 0.349c-0.008 0.001-0.022 0.003-0.022 0.003l0.003 0.001c-6.735 1.121-10.981 2.756-10.981 4.6 c0 3.4 14.7 6.1 32.8 6.125c18.087 0 32.75-2.742 32.75-6.125c0-1.818-4.246-3.453-10.98-4.574l0.004-0.001 c0 0-0.017-0.002-0.024-0.003c-0.733-0.122-1.496-0.238-2.287-0.348c-3.604-0.649-10.321-2.303-11.948-5.788 c-2.309-7.765 4.604-16.987 8.992-21.851c1.126-1.025 2.23-2.153 3.311-3.383c0.002-0.002 0.014-0.012 0.014-0.012h-0.002 C81.434 103.7 92 65.3 92 19.75C92 16.2 91.9 12.8 91.8 9.3 M46 11.25c-19.311 0-33.16-1.59-38.801-3.12 C12.84 6.6 26.7 5 46 5c19.318 0 33.2 1.6 38.8 3.13C79.16 9.7 65.3 11.2 46 11.2" class="style0"/></g></g></svg>