<?xml version="1.0" encoding="utf-8"?>
<!-- Generator: Adobe Illustrator 14.0.0, SVG Export Plug-In . SVG Version: 6.00 Build 43363)  -->
<!DOCTYPE svg PUBLIC "-//W3C//DTD SVG 1.1//EN" "http://www.w3.org/Graphics/SVG/1.1/DTD/svg11.dtd">
<svg version="1.1" id="Layer_1" xmlns="http://www.w3.org/2000/svg" xmlns:xlink="http://www.w3.org/1999/xlink" x="0px" y="0px"
	 width="266.894px" height="266.895px" viewBox="0 0 266.894 266.895" enable-background="new 0 0 266.894 266.895"
	 xml:space="preserve">
<g>
	<path fill="#3D5A98" d="M252.163,266.895c8.135,0,14.73-6.596,14.73-14.729V14.731c0-8.137-6.596-14.731-14.73-14.731H14.73
		C6.594,0,0,6.594,0,14.731v237.436c0,8.133,6.594,14.729,14.73,14.729H252.163z"/>
	<path fill="#FFFFFF" d="M184.151,266.895V163.542h34.693l5.194-40.281h-39.888V97.543c0-11.662,3.238-19.609,19.963-19.609
		l21.33-0.01V41.898c-3.69-0.49-16.352-1.587-31.082-1.587c-30.752,0-51.806,18.771-51.806,53.244v29.705h-34.781v40.281h34.781
		v103.354H184.151z"/>
</g>
</svg>
