<?xml version="1.0" encoding="utf-8"?>
<!-- Generator: Adobe Illustrator 14.0.0, SVG Export Plug-In . SVG Version: 6.00 Build 43363)  -->
<!DOCTYPE svg PUBLIC "-//W3C//DTD SVG 1.1//EN" "http://www.w3.org/Graphics/SVG/1.1/DTD/svg11.dtd">
<svg version="1.1" id="Layer_1" xmlns="http://www.w3.org/2000/svg" xmlns:xlink="http://www.w3.org/1999/xlink" x="0px" y="0px"
	 width="266.893px" height="266.895px" viewBox="0 0 266.893 266.895" enable-background="new 0 0 266.893 266.895"
	 xml:space="preserve">
<g>
	<path fill="#DB4A3D" d="M252.163,266.895c8.134,0,14.729-6.596,14.729-14.729V14.731C266.893,6.594,260.297,0,252.163,0H14.73
		C6.594,0,0,6.594,0,14.731v237.436c0,8.133,6.594,14.729,14.73,14.729H252.163z"/>
	<polygon fill-rule="evenodd" clip-rule="evenodd" fill="#FFFFFF" points="223.038,121.234 199.745,121.234 199.745,97.941 
		188.652,97.941 188.652,121.234 165.36,121.234 165.36,132.326 188.652,132.326 188.652,155.618 199.745,155.618 199.745,132.326 
		223.038,132.326 	"/>
	<path fill-rule="evenodd" clip-rule="evenodd" fill="#FFFFFF" d="M141.066,144.855c-5.541-4.415-14.07-8.453-14.974-14.975
		c-1.56-11.27,10.358-15.14,16.638-21.629c4.293-4.443,8.558-11.353,9.429-19.412c1.74-16.138-5.153-27.003-14.421-36.049
		c14.753,1.998,20.648-4.863,28.285-9.982c-51.212-1.082-108.297-4.975-107.037,45.477c0.575,23.122,19.344,38.433,47.141,35.495
		c-5.808,8.241,0.649,20.847,3.882,24.957c-29.787,1.941-60.934,9.489-62.669,37.712c-0.329,5.336,0.948,10.166,2.771,13.865
		c18.059,36.571,112.273,24.247,110.366-24.957C159.873,159.823,150.49,152.364,141.066,144.855 M100.026,116.569
		c-18.308-8.191-32.816-58.654-2.773-63.779c23.481-4.003,40.975,30.171,32.722,52.687
		C126.509,114.939,111.256,121.595,100.026,116.569 M143.285,194.769c-8.597,23.437-69.464,22.871-74.871-6.655
		c-0.799-4.354-0.105-10.538,1.108-13.865c4.498-12.352,17.549-16.655,35.493-18.303c4.166-0.381,9.231-1.508,13.312-0.554
		c5.002,1.165,11.774,8.347,14.419,10.536C138.932,171.038,148.115,181.603,143.285,194.769"/>
</g>
</svg>
