<svg xmlns="http://www.w3.org/2000/svg" xmlns:xlink="http://www.w3.org/1999/xlink" version="1.1" x="0px" y="0px" width="118px" height="86.309px" viewBox="81.059 30.191 118 86.309" enable-background="new 81.059 30.191 118 86.309" xml:space="preserve"><style>.style0{fill:	#FFFFFF;}.style1{clip-path:	url(#SVGID_2_);fill:	#FFFFFF;}.style2{clip-path:	url(#SVGID_4_);fill:	#FFFFFF;}.style3{clip-path:	url(#SVGID_6_);fill:	#FFFFFF;}.style4{clip-path:	url(#SVGID_8_);fill:	#FFFFFF;}.style5{clip-path:	url(#SVGID_10_);fill:	#FFFFFF;}.style6{clip-path:	url(#SVGID_12_);fill:	#FFFFFF;}.style7{clip-path:	url(#SVGID_14_);fill:	#FFFFFF;}</style><g><g><defs><rect x="87" y="30.2" width="107.1" height="79.8"/></defs><use xlink:href="#SVGID_1_" overflow="visible" class="style0"/><clipPath><use xlink:href="#SVGID_1_" overflow="visible"/></clipPath><path d="M194.059 107.824c0 1.202-0.83 2.176-1.854 2.176H88.854 C87.83 110 87 109 87 107.824s0.83-2.177 1.854-2.177h103.352C193.229 105.6 194.1 106.6 194.1 107.8" class="style1"/></g><g><defs><rect x="87" y="30.2" width="107.1" height="79.8"/></defs><use xlink:href="#SVGID_3_" overflow="visible" class="style0"/><clipPath><use xlink:href="#SVGID_3_" overflow="visible"/></clipPath><path d="M185.535 103.419h-90.01c0.33-23.296 20.354-42.088 45.004-42.088 C165.18 61.3 185.2 80.1 185.5 103.4" class="style2"/></g><g><defs><rect x="87" y="30.2" width="107.1" height="79.8"/></defs><use xlink:href="#SVGID_5_" overflow="visible" class="style0"/><clipPath><use xlink:href="#SVGID_5_" overflow="visible"/></clipPath><path d="M146.516 58.367c0 1.366-2.681 2.472-5.986 2.5 c-3.306 0-5.986-1.106-5.986-2.472s2.68-2.473 5.986-2.473C143.835 55.9 146.5 57 146.5 58.4" class="style3"/></g><g><defs><rect x="87" y="30.2" width="107.1" height="79.8"/></defs><use xlink:href="#SVGID_7_" overflow="visible" class="style0"/><clipPath><use xlink:href="#SVGID_7_" overflow="visible"/></clipPath><polygon points="140.5,58.4 140.5,58.4 135.1,58.4 140.5,68.9 140.5,68.9 146,58.4" class="style4"/></g><g><defs><rect x="87" y="30.2" width="107.1" height="79.8"/></defs><use xlink:href="#SVGID_9_" overflow="visible" class="style0"/><clipPath><use xlink:href="#SVGID_9_" overflow="visible"/></clipPath><path d="M139.907 51.776c-0.806-0.612-1.418-1.479-1.834-2.451 c-0.409-0.978-0.553-2.104-0.389-3.196c0.158-1.096 0.609-2.13 1.205-3.025c0.294-0.453 0.635-0.866 0.988-1.261 c0.156-0.173 0.343-0.371 0.46-0.518c0.136-0.165 0.271-0.343 0.392-0.522c1.005-1.425 1.408-3.189 1.289-5.032 c-0.115-1.845-0.645-3.726-1.385-5.58c0.712 0.7 1.3 1.6 1.8 2.471c0.475 0.9 0.8 1.9 1 2.9 c0.208 1 0.2 2.1 0 3.213c-0.189 1.083-0.634 2.132-1.26 3.038c-0.159 0.227-0.325 0.44-0.506 0.7 c-0.199 0.232-0.352 0.392-0.534 0.579c-0.321 0.325-0.617 0.668-0.888 1.024c-0.543 0.711-0.971 1.489-1.216 2.3 C138.563 48.1 138.9 50 139.9 51.8" class="style5"/></g><g><defs><rect x="87" y="30.2" width="107.1" height="79.8"/></defs><use xlink:href="#SVGID_11_" overflow="visible" class="style0"/><clipPath><use xlink:href="#SVGID_11_" overflow="visible"/></clipPath><path d="M129.023 55.404c-0.806-0.612-1.418-1.479-1.834-2.452 c-0.409-0.978-0.553-2.104-0.389-3.195c0.157-1.096 0.609-2.131 1.205-3.026c0.294-0.453 0.635-0.866 0.988-1.26 c0.156-0.173 0.343-0.371 0.46-0.518c0.136-0.164 0.271-0.342 0.392-0.521c1.005-1.426 1.408-3.19 1.289-5.032 c-0.115-1.845-0.645-3.726-1.385-5.58c0.712 0.7 1.3 1.6 1.8 2.471c0.474 0.9 0.8 1.9 1 2.9 c0.208 1 0.2 2.1 0 3.214c-0.189 1.083-0.634 2.132-1.26 3.038c-0.159 0.226-0.325 0.439-0.506 0.7 c-0.199 0.232-0.353 0.392-0.534 0.579c-0.321 0.325-0.617 0.669-0.888 1.024c-0.544 0.711-0.971 1.489-1.217 2.3 C127.68 51.7 128 53.7 129 55.4" class="style6"/></g><g><defs><rect x="87" y="30.2" width="107.1" height="79.8"/></defs><use xlink:href="#SVGID_13_" overflow="visible" class="style0"/><clipPath><use xlink:href="#SVGID_13_" overflow="visible"/></clipPath><path d="M150.79 55.404c-0.807-0.612-1.418-1.479-1.834-2.452 c-0.408-0.978-0.554-2.104-0.389-3.195c0.157-1.096 0.609-2.131 1.204-3.026c0.294-0.453 0.636-0.866 0.988-1.26 c0.155-0.173 0.343-0.371 0.46-0.518c0.137-0.164 0.271-0.342 0.393-0.521c1.005-1.426 1.408-3.19 1.288-5.032 c-0.114-1.845-0.644-3.726-1.385-5.58c0.712 0.7 1.3 1.6 1.8 2.471c0.475 0.9 0.8 1.9 1 2.9 c0.207 1 0.2 2.1 0 3.214c-0.189 1.083-0.634 2.132-1.261 3.038c-0.159 0.226-0.324 0.439-0.506 0.7 c-0.199 0.232-0.353 0.392-0.533 0.579c-0.322 0.325-0.617 0.669-0.889 1.024c-0.544 0.711-0.972 1.489-1.217 2.3 C149.446 51.7 149.8 53.7 150.8 55.4" class="style7"/></g></g></svg>