<svg xmlns="http://www.w3.org/2000/svg" xmlns:xlink="http://www.w3.org/1999/xlink" version="1.1" x="0px" y="0px" width="115px" height="96.915px" viewBox="0 0 115 96.915" enable-background="new 0 0 115 96.915" xml:space="preserve"><style>.style0{fill:	#FFFFFF;}.style1{clip-path:	url(#SVGID_2_);fill:	#FFFFFF;}</style><g><defs><rect x="4.6" width="106.3" height="91.9"/></defs><use xlink:href="#SVGID_1_" overflow="visible" class="style0"/><clipPath><use xlink:href="#SVGID_1_" overflow="visible"/></clipPath><path d="M36.903 30.392c0.479-4.369 3.382-8.264 8.645-11.584 c1.025 1 2.8 2.9 4.2 5.458c-1.338 3.764-1.338 7.718-0.799 11.267H37.356C36.903 33.9 36.7 32.1 36.9 30.4 M67.73 13.609c1.564 2.8 5.7 11.5 2.7 19.175c-0.353 0.956-0.83 1.884-1.406 2.748H54.906h-2.651 c-0.126-0.641-0.224-1.313-0.283-1.954c-0.132-1.239-0.162-2.518-0.069-3.764c0.098-1.878 0.483-3.764 1.247-5.549 c0.033-0.064 0.062-0.162 0.126-0.224C55.511 19.1 60.4 15.6 67.7 13.6 M110.895 19.638L107.892 14L77.751 31.4 L99.773 3.828L94.664 0L74.662 28.59c0.69-9.06-4.571-17.28-4.824-17.694l-0.601-0.961l-1.125 0.3 c-8.037 1.979-13.69 5.522-16.751 10.628c-2.139-3.13-4.402-5.043-4.593-5.198l-0.865-0.736l-0.956 0.6 c-6.795 3.959-10.597 8.869-11.235 14.587c-0.222 1.911-0.064 3.8 0.4 5.486H4.612C7.165 67.2 27.9 91.9 53.1 91.9 c25.219 0 45.988-24.697 48.505-56.383H78.642L110.895 19.638z" class="style1"/><path d="M59.851 28.508c0.356-1.048 0.639-2.102 1.082-3.121 c0.796-2.017 1.85-3.902 3.541-5.557c-1.21 0.253-2.23 1.021-3.056 1.884c-0.867 0.894-1.506 1.944-1.982 3.1 c-0.865 2.265-1.117 4.758-0.577 7.048C59.244 30.7 59.5 29.6 59.9 28.5" class="style1"/><path d="M42.999 25.863c-0.446 0.891-0.646 1.849-0.703 2.8 c-0.064 1 0 1.9 0.3 2.808c0.252 0.9 0.6 1.8 1.1 2.586c0.16-1.878 0.062-3.605 0.188-5.296 c0.098-1.692 0.288-3.317 1.02-5.041C44.02 24.2 43.4 25 43 25.9" class="style1"/></g></svg>