<?xml version="1.0" encoding="utf-8"?>
<!-- Generator: Adobe Illustrator 14.0.0, SVG Export Plug-In . SVG Version: 6.00 Build 43363)  -->
<!DOCTYPE svg PUBLIC "-//W3C//DTD SVG 1.1//EN" "http://www.w3.org/Graphics/SVG/1.1/DTD/svg11.dtd">
<svg version="1.1" id="Layer_1" xmlns="http://www.w3.org/2000/svg" xmlns:xlink="http://www.w3.org/1999/xlink" x="0px" y="0px"
	 width="266.894px" height="266.895px" viewBox="0 0 266.894 266.895" enable-background="new 0 0 266.894 266.895"
	 xml:space="preserve">
<g>
	<path fill="#CD2027" d="M252.163,266.895c8.134,0,14.73-6.596,14.73-14.729V14.731c0-8.137-6.597-14.731-14.73-14.731H14.729
		C6.593,0,0,6.594,0,14.731v237.436c0,8.133,6.593,14.729,14.729,14.729H252.163z"/>
	<rect x="168.78" y="145.782" fill-rule="evenodd" clip-rule="evenodd" fill="#FFFFFF" width="18" height="10.619"/>
	<path fill-rule="evenodd" clip-rule="evenodd" fill="#FFFFFF" d="M217.787,65.462c0.422,0.99,0.666,2.155,0.811,3.42
		c0.694,9.181,1.267,18.481,1.892,27.731c0.344-0.197,0.832-1.026,1.17-1.529c0.257-0.254,0.475-0.546,0.63-0.901
		c3.021-3.817,5.485-8.914,11.975-8.914c6.399,0,9.547,4.984,12.694,8.553c1.402,1.991,2.713,4.07,3.963,6.213
		c2.387,3.938,3.99,10.169,1.17,14.856c-2.499,4.151-7.508,5.245-12.965,6.392c1.415,0.686,3.079,1.122,4.682,1.621
		c0.288,0.163,0.578,0.322,0.99,0.36c0.493,0.258,1.098,0.404,1.621,0.63c0.121,0.028,0.172,0.128,0.359,0.091
		c1.008,0.491,2.15,0.85,2.973,1.529c0.546,0.384,1.033,0.826,1.529,1.262c1.491,1.841,2.789,3.874,2.881,7.112v0.99
		c-0.26,3.733-1.982,6.893-3.78,9.635c-1.772,2.703-3.822,5.153-6.033,7.383c-2.157,2.175-4.603,4.555-8.103,5.312
		c-3.827,0.828-7.659-0.454-9.994-2.881c-2.359-2.453-3.506-5.851-5.672-8.644c0.017-0.076-0.036-0.084-0.09-0.09v2.611
		c0.099,4.409,0.054,8.037-1.622,10.713c-1.558,2.488-4.03,4.493-7.382,5.044c-3.686,0.604-7.45-0.383-10.624-1.352
		c-3.24-0.989-6.261-2.428-8.734-3.692c-2.79-0.149-6.212-0.149-9.003,0c-2.719,1.775-8.438,1.748-11.164,0
		c-0.842-0.148-2.311-0.148-3.152,0c-4.246,3.807-9.987,6.566-18.366,5.944c-0.208,0.301-0.032,0.987-0.091,1.439
		c-0.398,7.08-5.238,12.301-12.514,12.334c-4.832,0.023-8.258-2.377-10.625-5.312c0.006-0.154-0.069-0.23-0.18-0.271
		c-0.148-0.451-0.463-0.738-0.631-1.17c-0.734-1.396-1.164-3.098-1.44-4.952v-0.27v-0.09c-0.057-0.304,0.116-0.837-0.089-0.991
		v-5.041c-2.486,3.058-7.478,5.791-13.146,4.411c-4.692-1.143-8.099-4.686-9.094-9.364c-4.234,5.674-11.75,9.384-21.607,9.725
		c-10.182,0.351-16.928-4.619-20.979-10.624c0.005-0.155-0.068-0.231-0.18-0.271c-0.228-0.521-0.514-0.986-0.81-1.44
		c-1.049-2.192-2.039-4.443-2.611-7.113c-3.394,8.759-4.764,20.058-11.075,26.199c-3.077,2.998-7.958,4.863-13.775,4.863
		c-5.96,0.001-10.228-1.912-13.055-5.582c0.005-0.155-0.069-0.23-0.179-0.27c-0.102-0.23-0.221-0.439-0.361-0.631
		c-2.169-2.894-2.102-8.364-0.54-11.613c1.57-3.271,4.541-5.508,8.103-6.485c-0.021-0.068-0.003-0.177-0.09-0.18
		c0.004-0.123-0.042-0.196-0.091-0.269c-0.1-0.351-0.248-0.652-0.449-0.9c-0.865-1.896-1.778-3.746-2.701-5.583
		c-0.1-0.351-0.25-0.651-0.451-0.899c-0.33-0.872-0.79-1.609-1.17-2.432c-0.1-0.351-0.248-0.651-0.45-0.901
		c-0.865-1.896-1.778-3.744-2.701-5.582c-0.099-0.349-0.25-0.651-0.451-0.899c-0.209-0.632-0.551-1.13-0.811-1.711
		c-1.444-3.521-3.462-6.431-4.771-9.903c-3.736-9.914,3.302-19.285,12.966-18.638c4.446,0.299,7.059,2.602,9.273,5.493
		c0.245,0.625,0.511,1.23,0.9,1.711c1.17,2.552,2.533,4.91,3.782,7.383c0.13-0.111,0.171-0.31,0.18-0.541
		c0.177-0.213,0.212-0.568,0.27-0.9c1.657-6.273,4.715-13.037,11.975-13.595c5.899-0.455,9.631,2.261,12.154,5.672
		c0.062,0.388,0.348,0.553,0.45,0.9c0.465-0.144,1.231-0.898,1.802-1.351c4.096-3.251,10.398-5.662,17.916-5.312
		c8.131,0.379,14.078,3.793,17.917,8.644c0.229,0.521,0.64,0.86,0.9,1.351c0.05,0.129,0.142,0.219,0.271,0.269
		c0.298-6.8-0.918-13.232,1.441-17.826c2.037-3.97,6.518-7.139,12.694-6.663c4.651,0.358,7.491,2.955,9.634,6.032
		c0.282,0.678,0.588,1.333,0.901,1.981c0.361,1.379,0.549,2.932,0.719,4.502c0.285,1.653-0.383,4.04,0,5.492
		c0.023,0.085,0.143,0.117,0.182,0c0.457-0.562,1.002-1.038,1.529-1.531c0.234-0.127,0.416-0.304,0.631-0.45
		c3.15-2.812,10.934-3.069,14.406-0.36c4.479-2.172,11.168-2.133,16.026-0.63c4.892,1.514,8.726,4.272,11.344,7.743
		c0.897-5.664,3.167-9.703,7.833-11.434c5.633-2.092,10.471,1.656,14.946,3.151c-3.691-6.307-7.914-12.672-11.885-19.088
		c-1.3-2.099-3.105-4.363-3.872-6.573c-0.393-1.135-0.598-2.804-0.45-4.501c0.562-6.435,6.108-9.293,11.434-11.345
		c2.765-1.064,5.582-2.018,8.645-2.701c3.161-0.704,6.798-1.354,10.354-1.08C213.205,59.237,216.208,62.219,217.787,65.462
		 M199.42,67.803c-1.84,0.456-3.635,0.908-5.401,1.53c-2.543,0.895-8.076,2.428-8.104,5.762c-0.007,0.896,0.672,1.616,1.17,2.431
		c5.083,8.316,10.125,16.375,15.306,24.579c1.753,2.774,3.912,7.474,7.023,7.474c5.321,0,3.504-8.977,3.241-13.595
		c-0.436-7.651-0.941-15.618-1.531-23.23c-0.12-1.567-0.138-3.734-0.539-4.412c-1.035-1.743-3.124-1.785-5.132-1.62
		C203.268,66.901,201.336,67.327,199.42,67.803 M231.203,95.173c-3.714,4.852-7.019,9.596-10.714,14.676
		c-0.685,0.939-1.363,1.792-1.441,2.791c-0.16,2.07,1.348,4.009,3.151,4.412c1.067,0.238,2.003-0.051,3.151-0.36
		c4.869-1.313,10.081-2.422,14.766-3.602c1.856-0.468,4.554-1.032,5.312-2.071c1.188-1.63,0.194-4.169-0.63-5.942
		c-1.264-2.714-3.661-6.31-5.492-8.464c-1.272-1.496-3.126-3.873-5.582-3.421C232.523,93.414,231.866,94.306,231.203,95.173
		 M109.835,152.256c-0.144,5.677,6.953,6.862,9.274,2.881c0.92-1.577,0.811-4.129,0.811-7.023v-41.776
		c0-2.381,0.104-5.054-0.54-6.482c-1.512-3.351-7.34-2.761-8.824-0.09c-1.152,2.072-0.631,6.562-0.631,9.814V141
		C109.716,144.573,109.896,148.535,109.835,152.256 M179.162,114.441c-0.224,1.595-0.458,4.325-0.45,6.302
		c0.014,3.402,0.297,8.436,3.062,9.094c1.763,0.419,4.181-0.781,5.942-1.351c3.828-1.238,7.327-2.326,11.073-3.512
		c1.63-0.516,4.386-1.13,5.402-1.982c1.625-1.358,1.671-4.848-0.089-6.301c-0.705-0.582-1.751-0.861-2.521-1.171
		c-4.465-1.801-8.562-3.653-13.146-5.492c-1.541-0.619-4.076-2.022-5.852-1.711C180.104,108.752,179.521,111.888,179.162,114.441
		 M137.927,111.11c-1.669-0.108-3.506,0.594-4.321,1.53c-1.595,1.828-0.991,8.859-0.991,13.146v33.763c0,2.8-0.307,6.508,0.45,8.373
		c1.38,3.399,7.39,4.049,9.094,0.45c1.782-3.766-0.579-10.767,0.99-14.585c2.752,2.039,5.615,3.576,9.813,3.511
		c4.148-0.062,7.533-1.492,9.904-3.421c5.059-4.114,6.482-11.366,6.482-20.258c0-9.075-1.58-15.889-7.113-19.538
		c-2.609-1.721-6.418-2.994-10.443-2.701c-4.234,0.308-6.614,2.013-9.634,3.782C141.587,112.881,140.438,111.271,137.927,111.11
		 M28.355,116.332c-0.617-1.16-1.116-2.526-1.893-3.151c-2.586-2.083-6.641-0.298-7.742,1.801c-1.775,3.386,0.785,6.928,1.891,9.274
		c4.354,9.229,8.439,17.713,12.965,26.92c0.753,1.531,1.814,3.26,1.62,5.041c-0.166,1.539-1.007,2.556-2.25,3.062
		c-1.827,0.744-3.529-0.014-5.312,0.36c-2.119,0.443-3.914,2.197-3.691,4.951c0.468,5.801,10.595,5.199,14.495,3.151
		c4.208-2.209,5.551-8.281,7.113-13.235c3.202-10.164,6.585-21.031,9.724-30.792c0.679-2.115,1.656-4.405,1.8-6.303
		c0.291-3.84-2.26-5.997-5.582-5.672c-3.162,0.31-3.997,3.935-4.862,6.843c-2.017,6.777-4.241,14.654-6.213,20.708
		C36.583,131.76,32.304,123.778,28.355,116.332 M81.204,157.477c3.866-0.01,7.196-0.933,9.994-2.34
		c2.699-1.357,5.301-3.205,6.213-6.123c1-3.206-1.035-6.378-4.232-6.122c-1.239,0.099-2.17,0.958-2.971,1.621
		c-2.337,1.931-5.342,4.383-9.904,3.871c-2.852-0.32-5.07-2.154-6.123-4.321c-0.543-1.12-1.619-4.832-0.27-5.672
		c1.053-0.656,4.339-0.181,5.943-0.181h12.245c2.291,0,4.543,0.298,5.672-0.54c1.436-1.068,1.183-4.187,1.08-6.573
		c-0.549-12.71-6.242-20.667-19.807-19.178c-4.719,0.519-8.373,2.13-10.894,4.862c-4.828,5.23-6.336,16.668-4.682,25.571
		c1.624,8.739,6.607,14.85,16.477,15.125C80.157,157.627,80.99,157.627,81.204,157.477 M220.038,129.387
		c0.096,0.872,0.672,1.686,1.351,2.791c2.759,4.494,5.132,8.414,7.923,12.874c0.892,1.425,2.268,4.23,3.782,4.592
		c2.102,0.502,3.897-1.286,5.131-2.521c2.322-2.322,4.634-5.116,6.394-8.012c0.822-1.354,2.178-3.278,1.89-5.313
		c-0.335-2.385-3.48-2.933-5.401-3.602c-4.258-1.48-7.585-2.46-11.524-3.781c-1.661-0.558-4.329-1.947-6.213-1.62
		C221.511,125.116,219.783,127.051,220.038,129.387 M203.203,133.529c-2.869,3.428-4.836,5.656-7.834,9.184
		c-1.016,1.193-3.324,3.395-3.242,5.312c0.089,2.042,2.054,3.072,3.602,3.963c1.673,0.96,3.43,1.753,5.223,2.43
		c2.679,1.011,9.754,3.809,11.435,0.18c0.527-1.14,0.45-3.175,0.45-5.582c0-4.446-0.104-7.78,0-12.064
		c0.061-2.562,0.322-4.482-0.181-5.762c-0.638-1.623-2.839-2.473-4.411-2.252C205.98,129.256,204.546,131.923,203.203,133.529
		 M177.092,148.924c-3.013,0.521-3.046,5.883,0.811,5.672c1.708-0.094,2.759-1.387,2.61-3.061
		C180.356,149.76,179.114,148.574,177.092,148.924"/>
	<path fill-rule="evenodd" clip-rule="evenodd" fill="#CD2027" d="M205.453,66.722c2.008-0.165,4.097-0.123,5.132,1.621
		c0.401,0.677,0.419,2.844,0.539,4.411c0.59,7.613,1.096,15.579,1.531,23.23c0.263,4.618,2.08,13.595-3.241,13.595
		c-3.111,0-5.271-4.7-7.024-7.474c-5.18-8.204-10.222-16.262-15.305-24.579c-0.498-0.815-1.177-1.534-1.17-2.431
		c0.027-3.333,5.561-4.867,8.104-5.762c1.767-0.622,3.562-1.073,5.401-1.53C201.336,67.327,203.268,66.901,205.453,66.722"/>
	<path fill-rule="evenodd" clip-rule="evenodd" fill="#CD2027" d="M233.724,93.192c2.456-0.452,4.311,1.925,5.582,3.421
		c1.831,2.154,4.229,5.75,5.492,8.464c0.824,1.773,1.818,4.312,0.63,5.942c-0.758,1.039-3.455,1.603-5.312,2.071
		c-4.685,1.18-9.896,2.289-14.766,3.602c-1.148,0.309-2.084,0.598-3.151,0.36c-1.804-0.403-3.312-2.342-3.151-4.412
		c0.078-0.999,0.757-1.852,1.441-2.791c3.695-5.08,7.001-9.824,10.713-14.676C231.866,94.306,232.523,93.414,233.724,93.192"/>
	<path fill-rule="evenodd" clip-rule="evenodd" fill="#CD2027" d="M182.584,108.318c1.775-0.311,4.311,1.092,5.852,1.711
		c4.583,1.84,8.681,3.691,13.146,5.493c0.771,0.31,1.816,0.588,2.521,1.17c1.761,1.454,1.714,4.943,0.089,6.302
		c-1.017,0.852-3.772,1.466-5.402,1.981c-3.746,1.186-7.245,2.273-11.073,3.512c-1.762,0.569-4.18,1.769-5.943,1.351
		c-2.764-0.658-3.047-5.692-3.061-9.094c-0.008-1.977,0.226-4.707,0.45-6.303C179.521,111.888,180.104,108.752,182.584,108.318"/>
	<path fill-rule="evenodd" clip-rule="evenodd" fill="#FFFFFF" d="M157.464,120.293c2.798,0.355,4.453,2.635,5.223,5.133
		c0.926,3.011,1.206,10.022,0.629,14.045c-0.29,2.028-0.806,4.272-1.89,5.76c-2.763,3.795-9.528,3.029-11.795-0.268
		c-2.022-2.941-2.386-8.658-1.981-13.686c0.317-3.931,1.113-7.757,3.242-9.455C152.113,120.851,154.643,119.936,157.464,120.293"/>
	<path fill-rule="evenodd" clip-rule="evenodd" fill="#FFFFFF" d="M88.228,130.467c-5.554,0.091-11.974,0.27-17.377-0.09
		c-0.777-2.658,0.699-5.546,2.25-7.113c1.539-1.555,3.943-2.521,6.393-2.701C85.44,120.125,88.752,124.518,88.228,130.467"/>
	<path fill-rule="evenodd" clip-rule="evenodd" fill="#CD2027" d="M223.369,124.795c1.884-0.327,4.552,1.063,6.213,1.62
		c3.939,1.321,7.267,2.301,11.524,3.781c1.921,0.669,5.066,1.217,5.401,3.602c0.288,2.035-1.067,3.959-1.89,5.312
		c-1.76,2.896-4.071,5.69-6.394,8.013c-1.233,1.235-3.029,3.022-5.131,2.521c-1.515-0.361-2.891-3.167-3.782-4.592
		c-2.791-4.46-5.164-8.38-7.922-12.874c-0.68-1.105-1.256-1.919-1.352-2.791C219.783,127.051,221.511,125.117,223.369,124.795"/>
	<path fill-rule="evenodd" clip-rule="evenodd" fill="#CD2027" d="M208.244,128.936c1.572-0.221,3.773,0.629,4.411,2.252
		c0.503,1.279,0.241,3.199,0.181,5.762c-0.104,4.284,0,7.618,0,12.064c0,2.407,0.077,4.443-0.45,5.582
		c-1.681,3.629-8.756,0.831-11.435-0.18c-1.793-0.677-3.55-1.47-5.223-2.431c-1.548-0.89-3.513-1.92-3.602-3.962
		c-0.082-1.917,2.227-4.118,3.242-5.312c2.998-3.527,4.965-5.755,7.834-9.184C204.546,131.923,205.98,129.256,208.244,128.936"/>
	<path fill-rule="evenodd" clip-rule="evenodd" fill="#231F20" d="M109.925,141V109.58c0-3.252-0.521-7.742,0.631-9.814
		c1.484-2.671,7.312-3.261,8.824,0.089c0.644,1.429,0.54,4.102,0.54,6.483v41.776c0,2.895,0.109,5.446-0.811,7.023
		c-2.321,3.981-9.418,2.796-9.274-2.881C110.046,148.684,109.866,144.723,109.925,141"/>
	<path fill-rule="evenodd" clip-rule="evenodd" fill="#231F20" d="M142.158,115.161c3.02-1.769,5.399-3.473,9.634-3.781
		c4.025-0.293,7.834,0.98,10.443,2.701c5.533,3.648,7.113,10.462,7.113,19.538c0,8.893-1.424,16.144-6.482,20.258
		c-2.371,1.929-5.756,3.358-9.904,3.421c-4.198,0.065-7.062-1.472-9.813-3.511c-1.57,3.818,0.792,10.819-0.99,14.585
		c-1.705,3.599-7.714,2.949-9.094-0.45c-0.757-1.865-0.45-5.573-0.45-8.373v-33.763c0-4.286-0.604-11.317,0.991-13.146
		c0.815-0.936,2.652-1.637,4.321-1.53C140.438,111.271,141.587,112.881,142.158,115.161 M150.892,121.824
		c-2.129,1.696-2.925,5.523-3.242,9.454c-0.404,5.027-0.041,10.744,1.981,13.686c2.267,3.298,9.032,4.062,11.795,0.269
		c1.084-1.488,1.6-3.732,1.89-5.761c0.577-4.022,0.297-11.034-0.629-14.045c-0.77-2.499-2.425-4.777-5.223-5.132
		C154.643,119.936,152.113,120.85,150.892,121.824"/>
	<path fill-rule="evenodd" clip-rule="evenodd" fill="#CD2027" d="M178.982,151.446c-0.187,0.263-0.425,0.475-0.811,0.54
		c0.245,0.445,0.815,1.043,0.811,1.44c-1.052,0.001-0.628-1.474-1.711-1.44c-0.48,0.119,0.13,1.331-0.36,1.44
		c-0.486-0.162-0.27-0.958-0.27-1.53v-1.8C177.899,150.068,179.28,149.916,178.982,151.446 M177.092,150.545v0.99
		c0.438-0.043,1.054,0.094,1.351-0.09C178.899,150.578,177.918,150.423,177.092,150.545"/>
	<path fill-rule="evenodd" clip-rule="evenodd" fill="#CD2027" d="M180.513,151.536c0.148,1.674-0.902,2.967-2.61,3.061
		c-3.856,0.211-3.823-5.151-0.811-5.672C179.114,148.574,180.356,149.76,180.513,151.536 M175.47,152.706
		c0.494,1.478,2.752,2.021,3.963,0.811c1.461-1.461,0.564-4.285-1.891-4.141C176.001,149.463,174.847,150.836,175.47,152.706"/>
	<path fill-rule="evenodd" clip-rule="evenodd" fill="#231F20" d="M40.418,139.291c1.972-6.054,4.196-13.931,6.213-20.708
		c0.865-2.908,1.7-6.533,4.862-6.843c3.321-0.325,5.873,1.832,5.582,5.672c-0.144,1.898-1.121,4.188-1.801,6.303
		c-3.138,9.761-6.521,20.628-9.723,30.792c-1.562,4.954-2.905,11.026-7.113,13.235c-3.9,2.048-14.027,2.649-14.496-3.151
		c-0.222-2.754,1.573-4.508,3.692-4.951c1.783-0.374,3.485,0.384,5.311-0.36c1.244-0.507,2.085-1.523,2.251-3.062
		c0.194-1.78-0.867-3.51-1.62-5.041c-4.526-9.207-8.611-17.69-12.966-26.921c-1.105-2.345-3.666-5.887-1.89-9.273
		c1.101-2.1,5.156-3.884,7.742-1.801c0.777,0.625,1.275,1.99,1.893,3.151C32.304,123.778,36.583,131.76,40.418,139.291"/>
	<path fill-rule="evenodd" clip-rule="evenodd" fill="#231F20" d="M79.944,157.477c-9.869-0.275-14.852-6.386-16.476-15.125
		c-1.655-8.902-0.146-20.34,4.681-25.57c2.522-2.733,6.176-4.344,10.895-4.863c13.564-1.488,19.258,6.468,19.806,19.178
		c0.104,2.387,0.357,5.505-1.08,6.573c-1.129,0.838-3.381,0.539-5.672,0.539H79.853c-1.603,0-4.889-0.475-5.942,0.182
		c-1.35,0.84-0.273,4.552,0.269,5.672c1.053,2.167,3.272,4.001,6.124,4.321c4.562,0.512,7.567-1.94,9.904-3.871
		c0.801-0.663,1.731-1.522,2.971-1.621c3.197-0.256,5.232,2.916,4.232,6.122c-0.912,2.918-3.515,4.766-6.213,6.123
		c-2.799,1.406-6.129,2.33-9.994,2.34H79.944z M79.493,120.563c-2.449,0.181-4.854,1.146-6.393,2.702
		c-1.55,1.567-3.027,4.454-2.25,7.112c5.404,0.359,11.824,0.181,17.377,0.09C88.753,124.519,85.44,120.125,79.493,120.563"/>
</g>
</svg>
